HIERARCHY
ROOT Hips
{
	OFFSET 0.000000 0.000000 0.000000
	CHANNELS 6 Xposition Yposition Zposition Zrotation Yrotation Xrotation 
	JOINT LowerBack
	{
		OFFSET 0.000000 0.000000 0.000000
		CHANNELS 3 Zrotation Yrotation Xrotation
		JOINT Spine
		{
			OFFSET 0.028270 2.035590 -0.193380
			CHANNELS 3 Zrotation Yrotation Xrotation
			JOINT Spine1
			{
				OFFSET 0.056720 2.048850 -0.042750
				CHANNELS 3 Zrotation Yrotation Xrotation
				JOINT Neck
				{
					OFFSET 0.000000 0.000000 0.000000
					CHANNELS 3 Zrotation Yrotation Xrotation
					JOINT Neck1
					{
						OFFSET -0.054170 1.746240 0.172020
						CHANNELS 3 Zrotation Yrotation Xrotation
						JOINT Head
						{
							OFFSET 0.104070 1.761360 -0.123970
							CHANNELS 3 Zrotation Yrotation Xrotation
							End Site
							{
								OFFSET 0.000000 0.000000 0.000000
							}
						}
					}
				}
				JOINT LeftShoulder
				{
					OFFSET 0.000000 0.000000 0.000000
					CHANNELS 3 Zrotation Yrotation Xrotation
					JOINT LeftArm
					{
						OFFSET 3.362410 1.200890 -0.311210
						CHANNELS 3 Zrotation Yrotation Xrotation
						JOINT LeftForeArm
						{
							OFFSET 4.983000 -0.000000 -0.000000
							CHANNELS 3 Zrotation Yrotation Xrotation
							JOINT LeftHand
							{
								OFFSET 3.483560 -0.000000 -0.000000
								CHANNELS 3 Zrotation Yrotation Xrotation
								JOINT LeftFingerBase
								{
									OFFSET 0.000000 0.000000 0.000000
									CHANNELS 3 Zrotation Yrotation Xrotation
									JOINT LeftHandIndex1
									{
										OFFSET 0.715260 -0.000000 -0.000000
										CHANNELS 3 Zrotation Yrotation Xrotation
										End Site
										{
											OFFSET 0.000000 0.000000 0.000000
										}
									}
								}
								JOINT LThumb
								{
									OFFSET 0.000000 0.000000 0.000000
									CHANNELS 3 Zrotation Yrotation Xrotation
									End Site
									{
										OFFSET 0.000000 0.000000 0.000000
									}
								}
							}
						}
					}
				}
				JOINT RightShoulder
				{
					OFFSET 0.000000 0.000000 0.000000
					CHANNELS 3 Zrotation Yrotation Xrotation
					JOINT RightArm
					{
						OFFSET -3.136600 1.374050 -0.404650
						CHANNELS 3 Zrotation Yrotation Xrotation
						JOINT RightForeArm
						{
							OFFSET -5.241900 -0.000000 -0.000000
							CHANNELS 3 Zrotation Yrotation Xrotation
							JOINT RightHand
							{
								OFFSET -3.444170 -0.000000 -0.000000
								CHANNELS 3 Zrotation Yrotation Xrotation
								JOINT RightFingerBase
								{
									OFFSET 0.000000 0.000000 0.000000
									CHANNELS 3 Zrotation Yrotation Xrotation
									JOINT RightHandIndex1
									{
										OFFSET -0.622530 -0.000000 -0.000000
										CHANNELS 3 Zrotation Yrotation Xrotation
										End Site
										{
											OFFSET 0.000000 0.000000 0.000000
										}
									}
								}
								JOINT RThumb
								{
									OFFSET 0.000000 0.000000 0.000000
									CHANNELS 3 Zrotation Yrotation Xrotation
									End Site
									{
										OFFSET 0.000000 0.000000 0.000000
									}
								}
							}
						}
					}
				}
			}
		}
	}
}
}
MOTION
Frames: 7
Frame Time: 0.008333
2.553090 17.198306 3.348565 -128.187788 -78.701762 171.310152 20.691416 -1.104945 -5.193636 3.877148 -2.687549 -4.333372 -6.227531 -2.710969 -0.598673 11.084706 -10.805284 -12.632596 -2.879788 -0.128133 -1.897638 0.000000 0.000000 0.000000 3.550548 3.694907 3.865947 -48.201946 2.347875 -30.972978 -0.758316 -64.394678 -0.117953 24.966469 -0.691980 -0.218376 -0.228875 0.289396 0.000000 0.000000 0.000000 0.000000 0.000000 0.000000 0.000000 12.610151 -7.064474 2.679240 52.588947 9.141891 -19.240494 0.600437 71.838096 -0.075939 -18.192872 10.054942 -1.701562 0.260122 -0.399862 0.000000 0.000000 0.000000 0.000000 0.000000 0.000000 0.000000 
2.554313 17.204568 3.341173 -130.684962 -78.309048 173.534923 20.385017 -1.028326 -4.973824 3.777645 -2.579072 -4.264021 -6.263767 -2.600850 -0.556259 10.884209 -10.690237 -12.453333 -2.910220 -0.133528 -1.834731 0.000000 0.000000 0.000000 3.433495 3.810049 3.826662 -48.173467 2.189622 -30.982575 -0.761302 -64.032546 -0.115677 24.760532 -0.740708 -0.226680 -0.226786 0.286593 0.000000 0.000000 0.000000 0.000000 0.000000 0.000000 0.000000 12.547195 -6.967200 2.595666 53.188191 9.241974 -19.500365 0.579525 71.627318 -0.078492 -18.444009 9.964426 -1.709887 0.258004 -0.400054 0.000000 0.000000 0.000000 0.000000 0.000000 0.000000 0.000000 
2.553871 17.211530 3.333467 -132.843870 -77.983200 175.330714 20.057469 -0.988527 -4.772820 3.677871 -2.508278 -4.196844 -6.291169 -2.528074 -0.500193 10.713958 -10.614093 -12.278358 -2.935747 -0.138529 -1.770860 0.000000 0.000000 0.000000 3.321368 3.940901 3.782112 -48.219484 2.086668 -30.983859 -0.766283 -63.856478 -0.113453 24.501779 -0.791492 -0.234972 -0.225309 0.284536 0.000000 0.000000 0.000000 0.000000 0.000000 0.000000 0.000000 12.495079 -6.920415 2.503656 53.746480 9.372936 -19.578923 0.562235 71.439098 -0.080398 -18.636106 9.904653 -1.717605 0.255968 -0.400001 0.000000 0.000000 0.000000 0.000000 0.000000 0.000000 0.000000 
2.552347 17.219155 3.325392 -134.692370 -77.737366 176.722291 19.710298 -0.988121 -4.582764 3.578776 -2.476981 -4.130464 -6.310065 -2.494631 -0.432256 10.576533 -10.572808 -12.111051 -2.956715 -0.143094 -1.707489 0.000000 0.000000 0.000000 3.227056 4.093027 3.733593 -48.339202 2.025301 -30.991416 -0.772207 -63.853964 -0.111441 24.216960 -0.834797 -0.241252 -0.224507 0.283253 0.000000 0.000000 0.000000 0.000000 0.000000 0.000000 0.000000 12.456888 -6.919873 2.403464 54.258612 9.526019 -19.478863 0.548554 71.282133 -0.081616 -18.760161 9.881543 -1.725012 0.253916 -0.399784 0.000000 0.000000 0.000000 0.000000 0.000000 0.000000 0.000000 
2.549467 17.227191 3.317018 -136.239443 -77.576730 177.724450 19.350690 -1.023766 -4.399729 3.481887 -2.481782 -4.064980 -6.321441 -2.497262 -0.356405 10.467478 -10.564635 -11.951796 -2.973511 -0.147244 -1.645114 0.000000 0.000000 0.000000 3.153301 4.254181 3.682134 -48.527150 2.008927 -31.014749 -0.777744 -64.014796 -0.109741 23.931724 -0.858371 -0.243224 -0.224338 0.282586 0.000000 0.000000 0.000000 0.000000 0.000000 0.000000 0.000000 12.428568 -6.961563 2.297331 54.723223 9.681106 -19.214351 0.538488 71.165998 -0.082127 -18.808628 9.899390 -1.732314 0.251789 -0.399507 0.000000 0.000000 0.000000 0.000000 0.000000 0.000000 0.000000 
2.545809 17.235702 3.308229 -137.526930 -77.503434 178.372957 18.975074 -1.093175 -4.210511 3.386183 -2.518907 -3.997831 -6.325999 -2.532359 -0.275276 10.384893 -10.586819 -11.802536 -2.986502 -0.150952 -1.584820 0.000000 0.000000 0.000000 3.108428 4.425501 3.628245 -48.774875 2.017605 -31.057514 -0.781848 -64.313380 -0.108471 23.667969 -0.857296 -0.240190 -0.224809 0.282551 0.000000 0.000000 0.000000 0.000000 0.000000 0.000000 0.000000 12.409853 -7.041095 2.186468 55.143731 9.826419 -18.807086 0.531583 71.096029 -0.081948 -18.777039 9.959118 -1.739208 0.249452 -0.399239 0.000000 0.000000 0.000000 0.000000 0.000000 0.000000 0.000000 
2.540467 17.244080 3.298660 -138.580316 -77.518843 178.710990 18.584729 -1.189003 -4.028686 3.291165 -2.582132 -3.933927 -6.325946 -2.593777 -0.194844 10.320067 -10.632938 -11.657499 -2.996696 -0.154419 -1.524708 0.000000 0.000000 0.000000 3.088032 4.573678 3.573338 -49.064761 2.088449 -31.117933 -0.783773 -64.746456 -0.107601 23.443051 -0.824200 -0.230950 -0.225871 0.282815 0.000000 0.000000 0.000000 0.000000 0.000000 0.000000 0.000000 12.392935 -7.148097 2.074237 55.527778 9.923432 -18.285169 0.527552 71.085069 -0.081096 -18.662792 10.058972 -1.745095 0.246911 -0.399035 0.000000 0.000000 0.000000 0.000000 0.000000 0.000000 0.000000 
